<?xml version="1.0" encoding="UTF-8" standalone="no"?>
<!DOCTYPE svg PUBLIC "-//W3C//DTD SVG 1.1//EN" "http://www.w3.org/Graphics/SVG/1.1/DTD/svg11.dtd">
<svg width="100%" height="100%" viewBox="0 0 560 560" version="1.1" xmlns="http://www.w3.org/2000/svg" xmlns:xlink="http://www.w3.org/1999/xlink" xml:space="preserve" xmlns:serif="http://www.serif.com/" style="fill-rule:evenodd;clip-rule:evenodd;stroke-linejoin:round;stroke-miterlimit:2;">
    <path d="M560,128.8L560,431.2C560,502.287 502.287,560 431.2,560L128.8,560C57.713,560 0,502.287 0,431.2L0,128.8C0,57.713 57.713,0 128.8,0L431.2,0C502.287,0 560,57.713 560,128.8Z" style="fill:rgb(48,50,107);"/>
    <g transform="matrix(2.13653,0,0,2.13653,-64669.3,-3229.79)">
        <path d="M30372.3,1661.71C30371.7,1660.15 30370.3,1659.06 30368.7,1658.94L30355.5,1657.98C30354.2,1657.88 30352.8,1658.45 30352,1659.5C30351.1,1660.55 30350.8,1661.95 30351.2,1663.26C30357,1684 30370.8,1702.75 30395.3,1709.06C30436.4,1719.67 30479.5,1690.97 30498.5,1667.06C30499.9,1665.25 30499.6,1662.63 30497.8,1661.2L30488,1653.43C30486.2,1652 30483.6,1652.3 30482.2,1654.1C30467,1673.15 30433.3,1697.34 30400.5,1688.88C30385.5,1685.03 30376.7,1674.18 30372.3,1661.71ZM30349.2,1624.98C30326,1619 30310.9,1604.32 30305.1,1597.78C30303.5,1596.07 30300.9,1595.91 30299.2,1597.44L30289.9,1605.76C30288.1,1607.29 30288,1609.92 30289.5,1611.64C30297.3,1620.4 30318.6,1640.88 30351.5,1646.78C30356.7,1647.73 30361.8,1648.14 30364.5,1648.28C30368.5,1648.49 30372.6,1648.46 30377,1648.18C30402.8,1646.46 30419.6,1642.72 30430.6,1637.89C30444.2,1631.87 30450.4,1623.96 30453.6,1615.42C30456.5,1607.65 30455.3,1597.92 30450,1589.11C30443.1,1577.66 30429.6,1567.93 30413.7,1567.58C30389.7,1567.06 30360.9,1578.65 30350.5,1619.12C30350,1621.01 30349.5,1622.96 30349.2,1624.98L30349.2,1624.98ZM30369.9,1627.58C30370.1,1626.47 30370.4,1625.38 30370.6,1624.33C30377.8,1596.69 30396.8,1588.05 30413.2,1588.41C30421.6,1588.59 30428.5,1593.83 30432.1,1599.81C30433.8,1602.62 30435,1605.57 30434.1,1608.05C30432.5,1612.32 30429,1615.81 30422.2,1618.82C30412.6,1623.01 30398,1625.9 30375.6,1627.39C30373.6,1627.52 30371.7,1627.58 30369.9,1627.58Z" style="fill:rgb(0,222,157);"/>
    </g>
</svg>
